<?xml version="1.0" encoding="UTF-8"?>
<svg id="Layer_2" xmlns="http://www.w3.org/2000/svg" viewBox="0 0 845.81 183.55">
  <defs>
    <style>
      .cls-1 {
        fill: #444560;
      }
    </style>
  </defs>
  <g id="Data-Lines">
    <g>
      <path class="cls-1" d="M202.56,28.93h32.05c.32,0,.58.26.58.58v32.05c0,.32-.26.58-.58.58h-32.05c-.32,0-.58-.27-.58-.58V29.5c0-.32.27-.58.58-.58Z"/>
      <path class="cls-1" d="M284.02,0v22.83c0,.49-.4.9-.9.9h-18.42l-11.11,11.11c-.16.16-.39.26-.63.26h-8.81c-.37,1.14-1.45,1.97-2.71,1.97-1.58,0-2.87-1.29-2.87-2.86s1.29-2.87,2.87-2.87c1.26,0,2.34.83,2.71,1.97h8.44l11.11-11.11c.16-.17.39-.27.63-.27h17.9V0h-8.26v9.72c0,.49-.4.9-.9.9h-37.4l-4.9,4.89v4.86c1.12.38,1.95,1.45,1.95,2.71,0,1.58-1.29,2.86-2.86,2.86s-2.86-1.28-2.86-2.86c0-1.27.82-2.35,1.97-2.71v-5.23c0-.24.1-.47.27-.64l5.42-5.42c.16-.16.39-.26.63-.26h36.88V0h-43.97v4.94c1.14.37,1.97,1.44,1.97,2.71,0,1.58-1.29,2.86-2.87,2.86s-2.86-1.28-2.86-2.86c0-1.27.83-2.34,1.97-2.71V0h-6.94v20.37c1.14.37,1.97,1.44,1.97,2.71,0,1.58-1.28,2.86-2.86,2.86s-2.86-1.28-2.86-2.86c0-1.27.83-2.34,1.97-2.71V0h-34.41v8.34h24.04c.49,0,.9.39.9.9v11.14c1.13.37,1.97,1.44,1.97,2.71,0,1.58-1.29,2.86-2.86,2.86s-2.86-1.28-2.86-2.86c0-1.27.82-2.34,1.97-2.71v-10.25h-24.04c-.49,0-.9-.4-.9-.9V0h-21.1v6.83c2.26.06,2.32,7.6-1.68,7.21h-12.69v19.32h47.18c.37-1.13,1.45-1.97,2.71-1.97,1.58,0,2.86,1.29,2.86,2.86s-1.28,2.86-2.86,2.86c-1.26,0-2.34-.82-2.71-1.96h-48.97V14.04h-13.82c-4.33-.06-2.7,5.13-5.02,7.19-.95.95-2.26,1.54-3.71,1.54H.77c-.7,0-1.04.87-.52,1.34-1.09,5.38,69.43,45.7,129.54,52.2v-16.7c-1.13-.37-1.97-1.45-1.97-2.71,0-1.58,1.29-2.87,2.86-2.87s2.86,1.29,2.86,2.87c0,1.26-.82,2.34-1.96,2.71v16.89c10.09.99,19.86.99,28.92-.32,2.39.27.88,4.81,3.54,6.65,35.84,36.59-50.53,70.08-50.53,70.08v30.08h44.94v-7.99l5.12-4.85c-.18-.37-.28-.78-.28-1.22,0-1.58,1.28-2.86,2.86-2.86s2.86,1.28,2.86,2.86-1.28,2.86-2.86,2.86c-.49,0-.95-.12-1.35-.34l-4.55,4.31v7.22h1.71l3.77-.2c3.46-1.71,32.47-6.14,44.29-5.41,15.07.1,29.08,1.67,44.27,5.61h12.48v-40.79h6.91c.37-1.14,1.44-1.96,2.71-1.96,1.57,0,2.86,1.28,2.86,2.86s-1.29,2.86-2.86,2.86c-1.27,0-2.34-.82-2.71-1.97h-5.12v39h24.39v-16.67c-1.14-.37-1.97-1.45-1.97-2.71,0-1.58,1.29-2.87,2.87-2.87s2.86,1.29,2.86,2.87c0,1.26-.83,2.34-1.96,2.71v16.67h11.07v-30.08c-94.87-53.27-45.3-120.06,71.74-126.67,2.23-.27,3.9-2.16,3.9-4.4.84-12.6-4.16-13.17,10.29-15.02V0h-107.73ZM241.43,15.93c1.26,0,2.34.83,2.71,1.97h7.07c.37-1.13,1.44-1.97,2.71-1.97,1.57,0,2.86,1.29,2.86,2.86s-1.29,2.86-2.86,2.86c-1.27,0-2.34-.82-2.71-1.97h-7.07c-.37,1.14-1.45,1.97-2.71,1.97-1.58,0-2.87-1.28-2.87-2.86s1.29-2.86,2.87-2.86ZM187.15,23.92c-1.27,0-2.34-.82-2.71-1.96h-16.54c-.37,1.14-1.45,1.96-2.71,1.96-1.58,0-2.86-1.28-2.86-2.86s1.28-2.86,2.86-2.86c1.26,0,2.34.82,2.71,1.97h16.54c.37-1.14,1.44-1.97,2.71-1.97,1.58,0,2.86,1.28,2.86,2.86s-1.28,2.86-2.86,2.86ZM293.84,150.13c1.57,0,2.86,1.29,2.86,2.86s-1.29,2.86-2.86,2.86c-1.27,0-2.35-.82-2.72-1.96h-13.84v17.76c1.13.37,1.97,1.44,1.97,2.71,0,1.57-1.29,2.86-2.86,2.86s-2.86-1.29-2.86-2.86c0-1.27.82-2.34,1.97-2.71v-19.55h15.63c.37-1.13,1.45-1.96,2.72-1.96ZM200.78,29.5c0-.98.8-1.77,1.77-1.77h32.05c.98,0,1.77.8,1.77,1.77v32.05c0,.98-.8,1.77-1.77,1.77h-32.05c-.98,0-1.77-.8-1.77-1.77V29.5ZM206.69,85.53v-14.33c-1.14-.37-1.97-1.45-1.97-2.72,0-1.57,1.28-2.86,2.86-2.86s2.86,1.29,2.86,2.86c0,1.27-.82,2.35-1.96,2.72v16.12h-20.44v11.08c1.14.37,1.97,1.44,1.97,2.71,0,1.58-1.28,2.86-2.86,2.86s-2.86-1.28-2.86-2.86c0-1.27.82-2.34,1.97-2.71v-12.87h20.44ZM190.01,146.96c0,1.57-1.28,2.86-2.86,2.86s-2.86-1.29-2.86-2.86c0-1.27.82-2.34,1.97-2.71v-16.55c-1.14-.37-1.97-1.44-1.97-2.71,0-1.57,1.28-2.86,2.86-2.86s2.86,1.29,2.86,2.86c0,1.27-.82,2.34-1.97,2.71v16.55c1.14.37,1.97,1.44,1.97,2.71ZM179.02,82.37c0,1.57-1.29,2.86-2.86,2.86s-2.86-1.29-2.86-2.86c0-1.27.82-2.34,1.97-2.71v-9.51h11.73c.37-1.14,1.45-1.97,2.71-1.97,1.58,0,2.87,1.28,2.87,2.86s-1.29,2.86-2.87,2.86c-1.26,0-2.34-.82-2.71-1.96h-9.93v7.71c1.13.37,1.96,1.44,1.96,2.71ZM114.68,61.65c-1.58,0-2.86-1.29-2.86-2.86,0-1.27.82-2.35,1.96-2.72v-9.63h-36.43c-.37,1.13-1.45,1.97-2.71,1.97-1.58,0-2.86-1.29-2.86-2.86s1.28-2.86,2.86-2.86c1.26,0,2.34.82,2.71,1.96h38.22v11.42c1.14.37,1.97,1.45,1.97,2.72,0,1.57-1.28,2.86-2.86,2.86ZM130.02,46.47v-11.32H50.8c-.38,1.11-1.44,1.92-2.7,1.92-1.57,0-2.86-1.29-2.86-2.86s1.29-2.87,2.86-2.87c1.29,0,2.37.85,2.73,2.02h80.98v11.32h61.37c.37-1.13,1.45-1.97,2.71-1.97,1.58,0,2.86,1.29,2.86,2.86s-1.28,2.86-2.86,2.86c-1.26,0-2.34-.82-2.71-1.97h-63.16ZM146.01,57.8v7.96c1.13.37,1.97,1.45,1.97,2.71,0,1.58-1.29,2.87-2.86,2.87s-2.86-1.29-2.86-2.87c0-1.26.82-2.34,1.97-2.71v-9.75h48.97c.37-1.14,1.45-1.96,2.71-1.96,1.58,0,2.86,1.28,2.86,2.86s-1.28,2.86-2.86,2.86c-1.26,0-2.34-.82-2.71-1.97h-47.18ZM129.19,151.01c1.26,0,2.34.83,2.71,1.97h8.44l11.11-11.1c.17-.17.39-.27.63-.27h17.9v-13.91c-1.13-.37-1.97-1.44-1.97-2.71,0-1.57,1.29-2.86,2.86-2.86s2.86,1.29,2.86,2.86c0,1.27-.82,2.34-1.97,2.71v14.81c0,.49-.4.9-.9.9h-18.42l-11.11,11.11c-.16.16-.39.26-.63.26h-8.81c-.37,1.14-1.45,1.97-2.71,1.97-1.58,0-2.86-1.28-2.86-2.86s1.28-2.86,2.86-2.86ZM153.57,171.79c-.47,0-.9-.11-1.29-.31l-6.33,6.33h-14.04c-.37,1.14-1.45,1.97-2.71,1.97-1.58,0-2.86-1.28-2.86-2.86s1.28-2.86,2.86-2.86c1.26,0,2.34.82,2.71,1.96h13.3l5.81-5.81c-.2-.38-.31-.82-.31-1.28,0-1.58,1.28-2.86,2.86-2.86s2.86,1.28,2.86,2.86-1.28,2.86-2.86,2.86ZM201.79,164.6c-1.26,0-2.34-.83-2.71-1.96h-18.93c-.49,0-.9-.4-.9-.9v-7h-26.61l-11.29,11.3c-.16.16-.39.26-.63.26h-8.81c-.37,1.14-1.45,1.96-2.71,1.96-1.58,0-2.86-1.28-2.86-2.86s1.28-2.86,2.86-2.86c1.26,0,2.34.83,2.71,1.97h8.44l11.29-11.29c.17-.16.4-.27.64-.27h27.88c.49,0,.9.4.9.9v7h18.03c.37-1.14,1.45-1.97,2.71-1.97,1.58,0,2.86,1.28,2.86,2.86s-1.28,2.86-2.86,2.86ZM202.68,116.35v14.68c1.14.37,1.97,1.44,1.97,2.71,0,1.57-1.28,2.86-2.86,2.86s-2.86-1.29-2.86-2.86c0-1.27.83-2.34,1.96-2.71v-15.43l16.94-16.94v-27.47c-1.13-.37-1.97-1.45-1.97-2.72,0-1.57,1.29-2.86,2.86-2.86s2.86,1.29,2.86,2.86c0,1.27-.82,2.35-1.96,2.72v28.22l-16.94,16.94ZM231.04,135.16v3.48l-6.42,6.38v14.12c.99.45,1.66,1.44,1.66,2.6,0,1.57-1.28,2.86-2.86,2.86s-2.86-1.29-2.86-2.86c0-1.15.69-2.15,1.67-2.6v-14.13l-6.32-6.37v-3.48c-.99-.46-1.66-1.45-1.66-2.6,0-1.58,1.28-2.86,2.86-2.86s2.86,1.28,2.86,2.86c0,1.15-.69,2.15-1.67,2.6v2.5l5.14,5.18,5.22-5.18v-2.5c-.99-.46-1.66-1.45-1.66-2.6,0-1.58,1.28-2.86,2.86-2.86s2.86,1.28,2.86,2.86c0,1.15-.69,2.15-1.67,2.6ZM225.93,109.44c-.4.21-.84.31-1.29.31-.73,0-1.46-.28-2.02-.84-1.12-1.11-1.12-2.93,0-4.05s2.92-1.11,4.04,0c.9.9,1.08,2.24.53,3.31l13.88,13.88v7.81c.42.13.8.36,1.13.69,1.12,1.12,1.12,2.93,0,4.05-.56.56-1.3.84-2.03.84s-1.46-.28-2.02-.84c-1.12-1.12-1.12-2.92,0-4.05.33-.33.71-.56,1.12-.69v-7.06l-13.35-13.35ZM248.4,177.22c-1.58,0-2.86-1.29-2.86-2.86,0-1.27.82-2.34,1.96-2.71v-13.3l-5.81-5.81c-.38.2-.82.31-1.29.31-1.58,0-2.86-1.29-2.86-2.87s1.28-2.86,2.86-2.86,2.86,1.29,2.86,2.86c0,.47-.11.9-.31,1.29l6.34,6.33v14.05c1.13.37,1.97,1.44,1.97,2.71,0,1.57-1.29,2.86-2.86,2.86ZM259.82,127.23v55.7h-1.79v-54.96l-29.05-29.05v-27.71c-.43-.14-.82-.37-1.15-.7-1.12-1.12-1.12-2.93,0-4.05.54-.54,1.26-.84,2.03-.84s1.48.3,2.02.84.83,1.29.83,2.02-.27,1.47-.83,2.03c-.32.32-.69.55-1.11.69v26.99l29.05,29.05ZM242.97,73.81c0-1.58,1.28-2.87,2.86-2.87s2.86,1.29,2.86,2.87c0,1.26-.82,2.34-1.97,2.71v16.54c1.14.37,1.97,1.44,1.97,2.71,0,1.58-1.28,2.86-2.86,2.86s-2.86-1.28-2.86-2.86c0-1.27.82-2.34,1.96-2.71v-16.54c-1.14-.37-1.96-1.45-1.96-2.71ZM265.81,52.12c-.47,0-.9-.11-1.29-.31l-6.33,6.33h-14.04c-.37,1.14-1.45,1.97-2.71,1.97-1.58,0-2.87-1.28-2.87-2.86s1.29-2.86,2.87-2.86c1.26,0,2.34.83,2.71,1.96h13.3l5.81-5.81h0c-.2-.39-.31-.82-.31-1.28,0-1.58,1.28-2.86,2.86-2.86s2.86,1.28,2.86,2.86-1.29,2.86-2.86,2.86ZM340.5,21.36c-1.27,0-2.35-.83-2.71-1.97h-44.5v14.79c0,.5-.4.9-.9.9h-27.51l-11.29,11.3c-.16.16-.39.26-.63.26h-8.81c-.37,1.14-1.45,1.96-2.71,1.96-1.58,0-2.87-1.28-2.87-2.86s1.29-2.86,2.87-2.86c1.26,0,2.34.83,2.71,1.97h8.44l11.29-11.29c.17-.16.4-.26.63-.26h26.99v-14.8c0-.49.4-.89.9-.89h45.4c.37-1.14,1.44-1.97,2.71-1.97,1.57,0,2.86,1.29,2.86,2.86s-1.29,2.87-2.86,2.87ZM361.93,11.81c-1.27,0-2.34-.82-2.71-1.96h-64.36c-.37,1.14-1.44,1.96-2.71,1.96-1.58,0-2.86-1.28-2.86-2.86s1.28-2.86,2.86-2.86c1.27,0,2.34.82,2.71,1.97h64.36c.37-1.14,1.44-1.97,2.71-1.97,1.57,0,2.86,1.28,2.86,2.86s-1.29,2.86-2.86,2.86Z"/>
    </g>
    <g>
      <g>
        <path class="cls-1" d="M394.6,136.6c3.9,2.07,6.92,4.97,9.06,8.71,2.14,3.74,3.21,8.05,3.21,12.94s-1.07,9.14-3.21,12.9c-2.14,3.76-5.17,6.67-9.09,8.74-3.92,2.07-8.47,3.1-13.64,3.1h-18.54v-49.49h18.54c5.22,0,9.78,1.03,13.68,3.1ZM390.79,168.82c2.54-2.49,3.81-6.02,3.81-10.58s-1.27-8.11-3.81-10.65-6.09-3.81-10.65-3.81h-5.71v28.76h5.71c4.56,0,8.11-1.24,10.65-3.74Z"/>
        <path class="cls-1" d="M413.53,152.6c1.53-3.05,3.61-5.4,6.24-7.05,2.63-1.64,5.57-2.47,8.81-2.47,2.77,0,5.21.56,7.3,1.69,2.09,1.13,3.7,2.61,4.83,4.44v-5.57h12.06v39.34h-12.06v-5.57c-1.17,1.83-2.81,3.31-4.9,4.44-2.09,1.13-4.52,1.69-7.3,1.69-3.2,0-6.11-.83-8.74-2.5-2.63-1.67-4.71-4.04-6.24-7.12-1.53-3.08-2.29-6.64-2.29-10.68s.76-7.59,2.29-10.65ZM438.2,156.2c-1.67-1.74-3.7-2.61-6.1-2.61s-4.43.86-6.1,2.57c-1.67,1.72-2.5,4.08-2.5,7.09s.83,5.39,2.5,7.16c1.67,1.76,3.7,2.64,6.1,2.64s4.43-.87,6.1-2.61c1.67-1.74,2.5-4.11,2.5-7.12s-.83-5.38-2.5-7.12Z"/>
        <path class="cls-1" d="M483.43,172.77v10.22h-6.13c-4.37,0-7.78-1.07-10.22-3.21-2.44-2.14-3.67-5.63-3.67-10.47v-15.65h-4.79v-10.01h4.79v-9.59h12.06v9.59h7.9v10.01h-7.9v15.79c0,1.18.28,2.02.85,2.54.56.52,1.5.78,2.82.78h4.3Z"/>
        <path class="cls-1" d="M490.02,152.6c1.53-3.05,3.61-5.4,6.24-7.05,2.63-1.64,5.57-2.47,8.81-2.47,2.77,0,5.21.56,7.3,1.69,2.09,1.13,3.7,2.61,4.83,4.44v-5.57h12.06v39.34h-12.06v-5.57c-1.17,1.83-2.81,3.31-4.9,4.44-2.09,1.13-4.52,1.69-7.3,1.69-3.2,0-6.11-.83-8.74-2.5-2.63-1.67-4.71-4.04-6.24-7.12-1.53-3.08-2.29-6.64-2.29-10.68s.76-7.59,2.29-10.65ZM514.69,156.2c-1.67-1.74-3.7-2.61-6.1-2.61s-4.43.86-6.1,2.57c-1.67,1.72-2.5,4.08-2.5,7.09s.83,5.39,2.5,7.16c1.67,1.76,3.7,2.64,6.1,2.64s4.43-.87,6.1-2.61c1.67-1.74,2.5-4.11,2.5-7.12s-.83-5.38-2.5-7.12Z"/>
        <path class="cls-1" d="M561.12,181.72c-2.87-1.17-5.16-2.91-6.87-5.22-1.72-2.3-2.62-5.08-2.71-8.32h12.83c.19,1.83.82,3.23,1.9,4.19,1.08.96,2.49,1.45,4.23,1.45s3.2-.41,4.23-1.23c1.03-.82,1.55-1.96,1.55-3.42,0-1.22-.41-2.23-1.23-3.03-.82-.8-1.83-1.46-3.03-1.97-1.2-.52-2.9-1.1-5.11-1.76-3.2-.99-5.8-1.97-7.83-2.96-2.02-.99-3.76-2.44-5.22-4.37-1.46-1.93-2.19-4.44-2.19-7.54,0-4.61,1.67-8.21,5.01-10.82,3.34-2.61,7.68-3.91,13.04-3.91s9.85,1.3,13.18,3.91c3.34,2.61,5.12,6.24,5.36,10.89h-13.04c-.09-1.6-.68-2.86-1.76-3.77-1.08-.92-2.47-1.37-4.16-1.37-1.46,0-2.63.39-3.53,1.16-.89.78-1.34,1.89-1.34,3.35,0,1.6.75,2.84,2.26,3.74,1.5.89,3.85,1.86,7.05,2.89,3.2,1.08,5.79,2.12,7.79,3.1,2,.99,3.72,2.42,5.18,4.3,1.46,1.88,2.19,4.3,2.19,7.26s-.72,5.38-2.15,7.68c-1.43,2.3-3.51,4.14-6.24,5.5-2.73,1.36-5.95,2.04-9.66,2.04s-6.86-.59-9.73-1.76Z"/>
        <path class="cls-1" d="M658.16,147.67c2.89,2.96,4.34,7.07,4.34,12.34v22.98h-11.98v-21.36c0-2.54-.67-4.5-2.01-5.89-1.34-1.39-3.18-2.08-5.53-2.08s-4.2.69-5.53,2.08c-1.34,1.39-2.01,3.35-2.01,5.89v21.36h-11.99v-21.36c0-2.54-.67-4.5-2.01-5.89-1.34-1.39-3.18-2.08-5.53-2.08s-4.2.69-5.53,2.08c-1.34,1.39-2.01,3.35-2.01,5.89v21.36h-12.06v-39.34h12.06v4.94c1.22-1.64,2.82-2.95,4.79-3.91,1.97-.96,4.21-1.45,6.7-1.45,2.96,0,5.61.63,7.93,1.9,2.33,1.27,4.15,3.08,5.46,5.43,1.36-2.16,3.22-3.92,5.57-5.29,2.35-1.36,4.91-2.04,7.68-2.04,4.89,0,8.78,1.48,11.67,4.44Z"/>
        <path class="cls-1" d="M671.84,137.69c-1.34-1.25-2.01-2.78-2.01-4.62s.67-3.44,2.01-4.69c1.34-1.24,3.07-1.87,5.18-1.87s3.77.62,5.11,1.87c1.34,1.25,2.01,2.81,2.01,4.69s-.67,3.37-2.01,4.62c-1.34,1.25-3.04,1.87-5.11,1.87s-3.84-.62-5.18-1.87ZM683.01,143.65v39.34h-12.06v-39.34h12.06Z"/>
        <path class="cls-1" d="M713.68,172.77v10.22h-6.13c-4.37,0-7.78-1.07-10.22-3.21-2.44-2.14-3.67-5.63-3.67-10.47v-15.65h-4.79v-10.01h4.79v-9.59h12.06v9.59h7.9v10.01h-7.9v15.79c0,1.18.28,2.02.85,2.54.56.52,1.5.78,2.82.78h4.3Z"/>
        <path class="cls-1" d="M755.41,147.7c2.73,2.99,4.09,7.08,4.09,12.3v22.98h-11.99v-21.36c0-2.63-.68-4.68-2.04-6.13-1.36-1.46-3.2-2.19-5.5-2.19s-4.14.73-5.5,2.19c-1.36,1.46-2.04,3.5-2.04,6.13v21.36h-12.06v-52.17h12.06v18.12c1.22-1.74,2.89-3.12,5.01-4.16,2.12-1.03,4.49-1.55,7.12-1.55,4.51,0,8.13,1.49,10.86,4.48Z"/>
      </g>
      <g>
        <path class="cls-1" d="M785.69,180.74h9.9v2.25h-12.66v-27.57h2.76v25.33Z"/>
        <path class="cls-1" d="M807.03,180.74h9.9v2.25h-12.66v-27.57h2.76v25.33Z"/>
        <path class="cls-1" d="M821.39,161.91c1.18-2.14,2.8-3.81,4.85-5.01,2.05-1.2,4.34-1.79,6.86-1.79,3.08,0,5.71.73,7.91,2.19,2.2,1.46,3.79,3.52,4.79,6.17h-3.23c-.79-1.87-1.99-3.33-3.61-4.38-1.62-1.05-3.57-1.58-5.86-1.58-2.03,0-3.85.47-5.46,1.42s-2.89,2.31-3.81,4.08c-.92,1.78-1.38,3.83-1.38,6.17s.46,4.39,1.38,6.15c.92,1.76,2.19,3.12,3.81,4.06s3.44,1.42,5.46,1.42c2.29,0,4.24-.52,5.86-1.56,1.62-1.04,2.82-2.48,3.61-4.32h3.23c-1,2.63-2.6,4.67-4.81,6.11-2.21,1.45-4.84,2.17-7.89,2.17-2.52,0-4.81-.6-6.86-1.79-2.05-1.2-3.67-2.86-4.85-4.99s-1.78-4.55-1.78-7.26.59-5.13,1.78-7.28Z"/>
      </g>
    </g>
  </g>
</svg>