<?xml version="1.0" encoding="UTF-8"?>
<svg id="Layer_2" data-name="Layer 2" xmlns="http://www.w3.org/2000/svg" viewBox="0 0 506.32 236.51">
  <defs>
    <style>
      .cls-1 {
        fill: #444560;
        stroke-width: 0px;
      }
    </style>
  </defs>
  <g id="Data-Lines">
    <g>
      <path class="cls-1" d="M261.8,37.39h41.43c.41,0,.74.33.74.74v41.43c0,.41-.33.76-.74.76h-41.43c-.41,0-.76-.34-.76-.76v-41.43c0-.41.34-.74.76-.74Z"/>
      <path class="cls-1" d="M367.08,0v29.51c0,.64-.52,1.16-1.16,1.16h-23.8l-14.36,14.36c-.21.21-.51.33-.82.33h-11.39c-.48,1.48-1.88,2.55-3.51,2.55-2.04,0-3.71-1.67-3.71-3.7s1.67-3.71,3.71-3.71c1.63,0,3.02,1.07,3.51,2.55h10.9l14.36-14.36c.21-.22.51-.34.82-.34h23.13V0h-10.68v12.57c0,.64-.52,1.16-1.16,1.16h-48.34l-6.33,6.32v6.28c1.45.5,2.52,1.88,2.52,3.51,0,2.04-1.67,3.7-3.7,3.7s-3.7-1.65-3.7-3.7c0-1.64,1.06-3.04,2.55-3.51v-6.76c.01-.31.13-.6.35-.83l7-7c.21-.21.51-.33.82-.33h47.66V0h-56.83v6.38c1.48.47,2.55,1.87,2.55,3.51,0,2.04-1.67,3.7-3.71,3.7s-3.7-1.65-3.7-3.7c0-1.64,1.07-3.02,2.54-3.51V0h-8.97v26.33c1.48.48,2.54,1.87,2.54,3.51,0,2.04-1.65,3.7-3.7,3.7s-3.7-1.65-3.7-3.7c0-1.64,1.07-3.02,2.54-3.51V0h-44.47v10.77h31.07c.64,0,1.16.51,1.16,1.16v14.4c1.46.48,2.54,1.87,2.54,3.51,0,2.04-1.67,3.7-3.7,3.7s-3.7-1.65-3.7-3.7c0-1.64,1.06-3.02,2.54-3.51v-13.24h-31.07c-.64,0-1.16-.52-1.16-1.16V0h-27.28v8.82c2.92.08,3,9.83-2.17,9.32h-16.4v24.97h60.98c.48-1.46,1.88-2.54,3.51-2.54,2.04,0,3.7,1.67,3.7,3.7s-1.65,3.7-3.7,3.7c-1.63,0-3.02-1.06-3.51-2.54h-63.29v-27.29h-17.86c-5.6-.08-3.48,6.63-6.49,9.3-1.23,1.23-2.92,1.98-4.8,1.98H1c-.91.01-1.35,1.12-.67,1.74-1.41,6.96,89.74,59.06,167.43,67.46v-21.58c-1.46-.48-2.54-1.88-2.54-3.51,0-2.04,1.67-3.71,3.7-3.71s3.7,1.67,3.7,3.71c0,1.63-1.06,3.02-2.54,3.51v21.83c13.04,1.28,25.67,1.28,37.38-.41,3.09.35,1.13,6.21,4.57,8.6,46.32,47.3-65.31,90.58-65.31,90.58v38.88h58.08v-10.32l6.62-6.27c-.24-.47-.37-1-.37-1.57,0-2.04,1.65-3.7,3.7-3.7s3.7,1.65,3.7,3.7-1.65,3.7-3.7,3.7c-.64,0-1.23-.15-1.75-.44l-5.88,5.58v9.33h2.21l4.88-.26c4.48-2.21,41.97-7.94,57.24-6.99,19.48.13,37.59,2.16,57.22,7.25h16.12v-52.72h8.93c.48-1.48,1.87-2.54,3.51-2.54,2.03,0,3.7,1.65,3.7,3.7s-1.67,3.7-3.7,3.7c-1.64,0-3.02-1.06-3.51-2.54h-6.62v50.4h31.53v-21.55c-1.48-.48-2.55-1.88-2.55-3.51,0-2.04,1.67-3.71,3.71-3.71s3.7,1.67,3.7,3.71c0,1.63-1.07,3.02-2.54,3.51v21.55h14.31v-38.88c-122.61-68.86-58.54-155.17,92.73-163.72,2.88-.35,5.04-2.79,5.04-5.68,1.09-16.29-5.37-17.02,13.3-19.41V0h-139.24ZM312.05,20.59c1.63,0,3.02,1.07,3.51,2.54h9.14c.48-1.46,1.87-2.54,3.51-2.54,2.03,0,3.7,1.67,3.7,3.7s-1.67,3.7-3.7,3.7c-1.64,0-3.02-1.06-3.51-2.54h-9.14c-.48,1.48-1.88,2.54-3.51,2.54-2.04,0-3.71-1.65-3.71-3.7s1.67-3.7,3.71-3.7ZM241.88,30.91c-1.64,0-3.02-1.06-3.51-2.54h-21.38c-.48,1.48-1.88,2.54-3.51,2.54-2.04,0-3.7-1.65-3.7-3.7s1.65-3.7,3.7-3.7c1.63,0,3.02,1.06,3.51,2.54h21.38c.48-1.48,1.87-2.54,3.51-2.54,2.04,0,3.7,1.65,3.7,3.7s-1.65,3.7-3.7,3.7ZM379.78,194.05c2.03,0,3.7,1.67,3.7,3.7s-1.67,3.7-3.7,3.7c-1.64,0-3.04-1.06-3.52-2.54h-17.88v22.95c1.46.48,2.54,1.87,2.54,3.51,0,2.03-1.67,3.7-3.7,3.7s-3.7-1.67-3.7-3.7c0-1.64,1.06-3.02,2.54-3.51v-25.27h20.2c.48-1.46,1.88-2.54,3.52-2.54ZM259.51,38.13c0-1.26,1.03-2.29,2.29-2.29h41.43c1.26,0,2.29,1.03,2.29,2.29v41.43c0,1.26-1.03,2.29-2.29,2.29h-41.43c-1.26,0-2.29-1.03-2.29-2.29v-41.43ZM267.14,110.54v-18.52c-1.48-.48-2.54-1.88-2.54-3.52,0-2.03,1.65-3.7,3.7-3.7s3.7,1.67,3.7,3.7c0,1.64-1.06,3.04-2.54,3.52v20.84h-26.41v14.32c1.48.48,2.54,1.87,2.54,3.51,0,2.04-1.65,3.7-3.7,3.7s-3.7-1.65-3.7-3.7c0-1.64,1.06-3.02,2.54-3.51v-16.63h26.41ZM245.58,189.95c0,2.03-1.65,3.7-3.7,3.7s-3.7-1.67-3.7-3.7c0-1.64,1.06-3.02,2.54-3.51v-21.39c-1.48-.48-2.54-1.87-2.54-3.51,0-2.03,1.65-3.7,3.7-3.7s3.7,1.67,3.7,3.7c0,1.64-1.06,3.02-2.54,3.51v21.39c1.48.48,2.54,1.87,2.54,3.51ZM231.38,106.46c0,2.03-1.67,3.7-3.7,3.7s-3.7-1.67-3.7-3.7c0-1.64,1.06-3.02,2.54-3.51v-12.29h15.16c.48-1.48,1.88-2.54,3.51-2.54,2.04,0,3.71,1.65,3.71,3.7s-1.67,3.7-3.71,3.7c-1.63,0-3.02-1.06-3.51-2.54h-12.84v9.97c1.46.48,2.54,1.87,2.54,3.51ZM148.22,79.68c-2.04,0-3.7-1.67-3.7-3.7,0-1.64,1.06-3.04,2.54-3.52v-12.45h-47.09c-.48,1.46-1.88,2.54-3.51,2.54-2.04,0-3.7-1.67-3.7-3.7s1.65-3.7,3.7-3.7c1.63,0,3.02,1.06,3.51,2.54h49.4v14.77c1.48.48,2.54,1.88,2.54,3.52,0,2.03-1.65,3.7-3.7,3.7ZM168.05,60.07v-14.64h-102.39c-.5,1.44-1.87,2.48-3.48,2.48-2.03,0-3.7-1.67-3.7-3.7s1.67-3.71,3.7-3.71c1.67,0,3.06,1.1,3.53,2.61h104.66v14.64h79.32c.48-1.46,1.88-2.54,3.51-2.54,2.04,0,3.7,1.67,3.7,3.7s-1.65,3.7-3.7,3.7c-1.63,0-3.02-1.06-3.51-2.54h-81.64ZM188.71,74.7v10.29c1.46.48,2.54,1.88,2.54,3.51,0,2.04-1.67,3.71-3.7,3.71s-3.7-1.67-3.7-3.71c0-1.63,1.06-3.02,2.54-3.51v-12.6h63.29c.48-1.48,1.88-2.54,3.51-2.54,2.04,0,3.7,1.65,3.7,3.7s-1.65,3.7-3.7,3.7c-1.63,0-3.02-1.06-3.51-2.54h-60.98ZM166.98,195.18c1.63,0,3.02,1.07,3.51,2.54h10.9l14.36-14.35c.22-.22.51-.34.82-.34h23.13v-17.98c-1.46-.48-2.54-1.87-2.54-3.51,0-2.03,1.67-3.7,3.7-3.7s3.7,1.67,3.7,3.7c0,1.64-1.06,3.02-2.54,3.51v19.14c0,.64-.52,1.16-1.16,1.16h-23.8l-14.36,14.36c-.21.21-.51.33-.82.33h-11.39c-.48,1.48-1.88,2.54-3.51,2.54-2.04,0-3.7-1.65-3.7-3.7s1.65-3.7,3.7-3.7ZM198.48,222.04c-.6,0-1.17-.14-1.67-.4l-8.19,8.19h-18.14c-.48,1.48-1.88,2.54-3.51,2.54-2.04,0-3.7-1.65-3.7-3.7s1.65-3.7,3.7-3.7c1.63,0,3.02,1.06,3.51,2.54h17.19l7.51-7.51c-.26-.5-.4-1.06-.4-1.65,0-2.04,1.65-3.7,3.7-3.7s3.7,1.65,3.7,3.7-1.65,3.7-3.7,3.7ZM260.81,212.75c-1.63,0-3.02-1.07-3.51-2.54h-24.46c-.64,0-1.16-.52-1.16-1.16v-9.05h-34.4l-14.59,14.6c-.21.21-.51.33-.82.33h-11.39c-.48,1.48-1.88,2.54-3.51,2.54-2.04,0-3.7-1.65-3.7-3.7s1.65-3.7,3.7-3.7c1.63,0,3.02,1.07,3.51,2.54h10.9l14.59-14.59c.22-.21.52-.34.83-.34h36.03c.64,0,1.16.52,1.16,1.16v9.05h23.31c.48-1.48,1.88-2.54,3.51-2.54,2.04,0,3.7,1.65,3.7,3.7s-1.65,3.7-3.7,3.7ZM261.96,150.39v18.97c1.48.48,2.54,1.87,2.54,3.51,0,2.03-1.65,3.7-3.7,3.7s-3.7-1.67-3.7-3.7c0-1.64,1.07-3.02,2.54-3.51v-19.94l21.89-21.89v-35.51c-1.46-.48-2.54-1.88-2.54-3.52,0-2.03,1.67-3.7,3.7-3.7s3.7,1.67,3.7,3.7c0,1.64-1.06,3.04-2.54,3.52v36.48l-21.89,21.89ZM298.62,174.7v4.5l-8.29,8.25v18.25c1.28.58,2.15,1.87,2.15,3.35,0,2.03-1.65,3.7-3.7,3.7s-3.7-1.67-3.7-3.7c0-1.49.89-2.78,2.16-3.35v-18.26l-8.17-8.23v-4.5c-1.28-.59-2.15-1.88-2.15-3.35,0-2.04,1.65-3.7,3.7-3.7s3.7,1.65,3.7,3.7c0,1.49-.89,2.78-2.16,3.35v3.22l6.64,6.7,6.74-6.7v-3.22c-1.28-.59-2.15-1.88-2.15-3.35,0-2.04,1.65-3.7,3.7-3.7s3.7,1.65,3.7,3.7c0,1.49-.89,2.78-2.16,3.35ZM292.02,141.44c-.52.27-1.09.4-1.67.4-.95,0-1.89-.37-2.61-1.09-1.44-1.44-1.44-3.79,0-5.23s3.78-1.44,5.22,0c1.17,1.16,1.39,2.89.69,4.28l17.94,17.94v10.09c.54.17,1.04.46,1.46.89,1.44,1.45,1.44,3.79,0,5.23-.72.72-1.68,1.09-2.62,1.09s-1.89-.37-2.61-1.09c-1.44-1.44-1.44-3.78,0-5.23.43-.43.92-.72,1.45-.89v-9.13l-17.26-17.26ZM321.05,229.06c-2.04,0-3.7-1.67-3.7-3.7,0-1.64,1.06-3.02,2.54-3.51v-17.19l-7.51-7.51c-.5.26-1.06.4-1.67.4-2.04,0-3.7-1.67-3.7-3.71s1.65-3.7,3.7-3.7,3.7,1.67,3.7,3.7c0,.6-.14,1.17-.4,1.67l8.2,8.19v18.16c1.46.48,2.54,1.87,2.54,3.51,0,2.03-1.67,3.7-3.7,3.7ZM335.82,164.44v71.99h-2.32v-71.03l-37.55-37.55v-35.82c-.56-.18-1.06-.48-1.49-.91-1.44-1.44-1.44-3.79,0-5.23.7-.7,1.63-1.09,2.62-1.09s1.91.39,2.61,1.09,1.07,1.67,1.07,2.61-.35,1.9-1.07,2.62c-.41.41-.9.71-1.43.89v34.88l37.55,37.55ZM314.03,95.4c0-2.04,1.65-3.71,3.7-3.71s3.7,1.67,3.7,3.71c0,1.63-1.06,3.02-2.54,3.51v21.38c1.48.48,2.54,1.87,2.54,3.51,0,2.04-1.65,3.7-3.7,3.7s-3.7-1.65-3.7-3.7c0-1.64,1.06-3.02,2.54-3.51v-21.38c-1.48-.48-2.54-1.88-2.54-3.51ZM343.55,67.37c-.6,0-1.17-.14-1.67-.4l-8.19,8.19h-18.14c-.48,1.48-1.88,2.54-3.51,2.54-2.04,0-3.71-1.65-3.71-3.7s1.67-3.7,3.71-3.7c1.63,0,3.02,1.07,3.51,2.54h17.19l7.51-7.51h0c-.26-.51-.4-1.06-.4-1.65,0-2.04,1.65-3.7,3.7-3.7s3.7,1.65,3.7,3.7-1.67,3.7-3.7,3.7ZM440.09,27.61c-1.64,0-3.04-1.07-3.51-2.55h-57.52v19.11c0,.65-.52,1.16-1.16,1.16h-35.56l-14.59,14.6c-.21.21-.51.33-.82.33h-11.39c-.48,1.48-1.88,2.54-3.51,2.54-2.04,0-3.71-1.65-3.71-3.7s1.67-3.7,3.71-3.7c1.63,0,3.02,1.07,3.51,2.54h10.9l14.59-14.59c.22-.21.52-.33.82-.33h34.88v-19.12c0-.64.52-1.15,1.16-1.15h58.67c.47-1.48,1.87-2.55,3.51-2.55,2.03,0,3.7,1.67,3.7,3.7s-1.67,3.71-3.7,3.71ZM467.79,15.26c-1.64,0-3.02-1.06-3.51-2.54h-83.18c-.48,1.48-1.87,2.54-3.51,2.54-2.04,0-3.7-1.65-3.7-3.7s1.65-3.7,3.7-3.7c1.64,0,3.02,1.06,3.51,2.54h83.18c.48-1.48,1.87-2.54,3.51-2.54,2.03,0,3.7,1.65,3.7,3.7s-1.67,3.7-3.7,3.7Z"/>
    </g>
  </g>
</svg>